<svg width="40" height="20" viewBox="0 0 40 20" fill="none" xmlns="http://www.w3.org/2000/svg">
<g clip-path="url(#clip0_292_2)">
<path d="M22.8 13.5H3.2C3.1 13.5 3 13.4 3 13.3V3.7C3 3.6 3.1 3.5 3.2 3.5H22.8C22.9 3.5 23 3.6 23 3.7V13.3C23 13.4 22.9 13.5 22.8 13.5Z" stroke="black" stroke-width="0.25" stroke-miterlimit="10"/>
<path d="M33.3 14H23.7C23.6 14 23.5 13.9 23.5 13.8V8.2C23.5 8.1 23.6 8 23.7 8H33.3C33.4 8 33.5 8.1 33.5 8.2V13.8C33.5 13.9 33.4 14 33.3 14Z" stroke="black" stroke-width="0.25" stroke-miterlimit="10"/>
<path d="M6 14.2C6 14 6.1 14 6.2 14H19.9C20 14 20.1 14.1 20.1 14.2" fill="#E6E6E6"/>
<path d="M6 14.2C6 14 6.1 14 6.2 14H19.9C20 14 20.1 14.1 20.1 14.2" stroke="black" stroke-width="0.25" stroke-miterlimit="10"/>
<path d="M22.2 14.2002H34.5" stroke="black" stroke-width="0.25" stroke-miterlimit="10" stroke-linecap="round"/>
<path d="M35 11.2V14C35 14.1 35.1 14.2 35.2 14.2H36.8C36.9 14.2 37 14.1 37 14V11.2C37 11.1 36.9 11 36.8 11H35.2C35.1 11 35 11.1 35 11.2Z" stroke="black" stroke-width="0.25" stroke-miterlimit="10"/>
<path d="M35 13.5996H36.9" stroke="black" stroke-width="0.25" stroke-miterlimit="10"/>
</g>
<defs>
<clipPath id="clip0_292_2">
<rect width="40" height="20" fill="white"/>
</clipPath>
</defs>
</svg>
